[Header]
FileType HTR
DataType HTRS
FileVersion 1
NumSegments 36
NumFrames 4
DataFrameRate 120
EulerRotationOrder ZYX
CalibrationUnits mm
RotationUnits Degrees
GlobalAxisofGravity Y
BoneLengthAxis Y
ScaleFactor 1.0
[SegmentNames&Hierarchy]
Hips	GLOBAL
Spine	Hips
Spine1	Spine
Spine2	Spine1
Spine3	Spine2
Neck	Spine3
Head	Neck
HeadEnd	Head
RightShoulder	Spine3
RightArm	RightShoulder
RightForeArm	RightArm
RightForeArmRoll	RightForeArm
RightHand	RightForeArmRoll
RightHandEnd	RightHand
R_FingersEnd	RightHandEnd
RightHandThumb1	RightHand
RightHandThumb2	RightHandThumb1
LeftShoulder	Spine3
LeftArm	LeftShoulder
LeftForeArm	LeftArm
LeftForeArmRoll	LeftForeArm
LeftHand	LeftForeArmRoll
LeftHandEnd	LeftHand
L_FingersEnd	LeftHandEnd
LeftHandThumb1	LeftHand
LeftHandThumb2	LeftHandThumb1
RightUpLeg	Hips
RightLeg	RightUpLeg
RightFoot	RightLeg
RightToeBase	RightFoot
RightToeBaseEnd	RightToeBase
LeftUpLeg	Hips
LeftLeg	LeftUpLeg
LeftFoot	LeftLeg
LeftToeBase	LeftFoot
LeftToeBaseEnd	LeftToeBase
[BasePosition]
Hips	0	0	0	0	0	0	1
Spine	0	0	0	-10	-0	0	1
Spine1	0	0	0	5	0	0	1
Spine2	0	0	0	5	0	0	1
Spine3	0	0	0	0	0	0	1
Neck	0	0	0	10	0	0	1
Head	0	0	0	-10	-0	0	1
HeadEnd	0	0	0	0	0	0	1
RightShoulder	0	0	0	-180	-0	-180	1
RightArm	0	0	0	0	0	0	1
RightForeArm	0	0	0	0	0	0	1
RightForeArmRoll	0	0	0	0	0	0	1
RightHand	0	0	0	0	0	0	1
RightHandEnd	0	0	0	-90	-0	0	1
R_FingersEnd	0	0	0	0	0	0	1
RightHandThumb1	0	0	0	170	-0	-15	1
RightHandThumb2	0	0	0	0	0	0	1
LeftShoulder	0	0	0	0	0	0	1
LeftArm	0	0	0	0	0	0	1
LeftForeArm	0	0	0	0	0	0	1
LeftForeArmRoll	0	0	0	0	0	0	1
LeftHand	0	0	0	0	0	0	1
LeftHandEnd	0	0	0	90	0	0	1
L_FingersEnd	0	0	0	0	0	0	1
LeftHandThumb1	0	0	0	170	-0	-15	1
LeftHandThumb2	0	0	0	0	0	0	1
RightUpLeg	0	0	0	-0	90	0	1
RightLeg	0	0	0	0	0	0	1
RightFoot	0	0	0	0	-0	-70	1
RightToeBase	0	0	0	0	-0	-20	1
RightToeBaseEnd	0	0	0	0	0	0	1
LeftUpLeg	0	0	0	-0	90	0	1
LeftLeg	0	0	0	0	0	0	1
LeftFoot	0	0	0	0	-0	-70	1
LeftToeBase	0	0	0	0	-0	-20	1
LeftToeBaseEnd	0	0	0	0	0	0	1
[Hips]
53	-5.283722878	970.75354	-19.57728386	-88.98728943	0.08077889681	0.2393055707	1.0
54	-5.289926052	970.715271	-19.69177437	-88.97091675	0.08692633361	0.2371514738	1.0
55	-5.301840305	970.6829834	-19.80072021	-88.95169067	0.0918404758	0.2378449291	1.0
56	-5.324205399	970.6694336	-19.88534164	-88.93291473	0.09646210819	0.2377476096	1.0
[Spine]
53	0	44.87670517	67.31505585	-0.2410564125	0.3793991208	0.07586628199	1.0
54	0	44.87670517	67.31505585	-0.2411223054	0.3774330616	0.07545161247	1.0
55	0	44.87670517	67.31505585	-0.2430300862	0.3764087558	0.07487212867	1.0
56	0	44.87670517	67.31505585	-0.2451375723	0.3751444519	0.07426442951	1.0
[Spine1]
53	0	0	89.75341034	-0.6110603213	0.01679562777	-0.0006875898107	1.0
54	0	0	89.75341034	-0.6099446416	0.01436587796	-0.0009062074241	1.0
55	0	0	89.75341034	-0.6114612818	0.01186539792	-0.001277555712	1.0
56	0	0	89.75341034	-0.6135314703	0.009659158997	-0.001610451727	1.0
[Spine2]
53	0	0	89.75341034	1.372541785	0.4825878441	0.3465790451	1.0
54	0	0	89.75341034	1.375298738	0.484600544	0.3485645354	1.0
55	0	0	89.75341034	1.380431414	0.4877372384	0.349514544	1.0
56	0	0	89.75341034	1.385613203	0.4902468324	0.3502451777	1.0
[Spine3]
53	0	0	89.75341034	0.1079046503	-0.4097768664	-0.06875374913	1.0
54	0	0	89.75341034	0.1083192155	-0.4080474377	-0.07001012564	1.0
55	0	0	89.75341034	0.1097481251	-0.4049841762	-0.07224805653	1.0
56	0	0	89.75341034	0.1113814563	-0.4022228122	-0.07411210239	1.0
[Neck]
53	0	-33.65752792	235.6027069	-1.316244245	0.01108440012	-0.1623627841	1.0
54	0	-33.65752792	235.6027069	-1.318902731	0.004991503432	-0.1588419825	1.0
55	0	-33.65752792	235.6027069	-1.320563674	0.001001904253	-0.1534517258	1.0
56	0	-33.65752792	235.6027069	-1.319503427	-0.002607021714	-0.1487971246	1.0
[Head]
53	0	0	123.4109421	-1.013265014	-0.2142335474	-1.025402546	1.0
54	0	0	123.4109421	-1.021645665	-0.2168675661	-1.022942662	1.0
55	0	0	123.4109421	-1.034172535	-0.2232151031	-1.017127037	1.0
56	0	0	123.4109421	-1.045858026	-0.2291915119	-1.011049867	1.0
[HeadEnd]
53	0	0	145.2883301	0	0	0	1.0
54	0	0	145.2883301	0	0	0	1.0
55	0	0	145.2883301	0	0	0	1.0
56	0	0	145.2883301	0	0	0	1.0
[RightShoulder]
53	-30.74827576	-51.24713135	166.0407104	-4.445294857	-5.945478916	0.8813248873	1.0
54	-30.74827576	-51.24713135	166.0407104	-4.442127228	-5.953361511	0.8766802549	1.0
55	-30.74827576	-51.24713135	166.0407104	-4.437374115	-5.96263504	0.8684936762	1.0
56	-30.74827576	-51.24713135	166.0407104	-4.432313919	-5.971370697	0.8607485294	1.0
[RightArm]
53	152.7164459	0	0	-24.63970757	-69.23126984	4.26263237	1.0
54	152.7164459	0	0	-24.63661003	-69.24190521	4.234855652	1.0
55	152.7164459	0	0	-24.63066673	-69.25195313	4.200677872	1.0
56	152.7164459	0	0	-24.62385178	-69.26274872	4.169898987	1.0
[RightForeArm]
53	297.8946228	0	0	0	0	-31.32266808	1.0
54	297.8946228	0	0	0	0	-31.31513786	1.0
55	297.8946228	0	0	0	0	-31.30368805	1.0
56	297.8946228	0	0	0	0	-31.29158592	1.0
[RightForeArmRoll]
53	122.9768982	0	0	4.534079552	0	0	1.0
54	122.9768982	0	0	4.508477211	0	0	1.0
55	122.9768982	0	0	4.470745087	0	0	1.0
56	122.9768982	0	0	4.425166607	0	0	1.0
[RightHand]
53	127.1009369	0	0	-2.247652992e-005	8.076008797	-3.065669537	1.0
54	127.1009369	0	0	-1.707411502e-005	8.079967499	-3.051273823	1.0
55	127.1009369	0	0	-5.334390153e-006	8.081604958	-3.030072689	1.0
56	127.1009369	0	0	7.025698324e-006	8.074831963	-3.007833481	1.0
[RightHandEnd]
53	72.05677795	0	0	0	0	0	1.0
54	72.05677795	0	0	0	0	0	1.0
55	72.05677795	0	0	0	0	0	1.0
56	72.05677795	0	0	0	0	0	1.0
[R_FingersEnd]
53	72.05677795	0	0	0	0	0	1.0
54	72.05677795	0	0	0	0	0	1.0
55	72.05677795	0	0	0	0	0	1.0
56	72.05677795	0	0	0	0	0	1.0
[RightHandThumb1]
53	28.82271004	-48.03784943	19.2151413	0	0	0	1.0
54	28.82271004	-48.03784943	19.2151413	0	0	0	1.0
55	28.82271004	-48.03784943	19.2151413	0	0	0	1.0
56	28.82271004	-48.03784943	19.2151413	0	0	0	1.0
[RightHandThumb2]
53	72.05677795	0	0	0	0	0	1.0
54	72.05677795	0	0	0	0	0	1.0
55	72.05677795	0	0	0	0	0	1.0
56	72.05677795	0	0	0	0	0	1.0
[LeftShoulder]
53	30.74827576	-51.24713135	166.0407104	5.401371479	6.10365963	2.967574358	1.0
54	30.74827576	-51.24713135	166.0407104	5.391085625	6.093574524	2.96937871	1.0
55	30.74827576	-51.24713135	166.0407104	5.37728405	6.078185081	2.974827766	1.0
56	30.74827576	-51.24713135	166.0407104	5.3647089	6.064280987	2.980371237	1.0
[LeftArm]
53	152.7164459	0	0	3.781295061	68.73091125	-34.6914444	1.0
54	152.7164459	0	0	3.755747795	68.73151398	-34.71196747	1.0
55	152.7164459	0	0	3.71756959	68.73503113	-34.73422241	1.0
56	152.7164459	0	0	3.681097984	68.73721313	-34.75488281	1.0
[LeftForeArm]
53	297.8946228	0	0	0	0	-19.29680443	1.0
54	297.8946228	0	0	0	0	-19.2989502	1.0
55	297.8946228	0	0	0	0	-19.30231285	1.0
56	297.8946228	0	0	0	0	-19.30391312	1.0
[LeftForeArmRoll]
53	122.9768982	0	0	-5.674827576	0	0	1.0
54	122.9768982	0	0	-5.653337479	0	0	1.0
55	122.9768982	0	0	-5.570660591	0	0	1.0
56	122.9768982	0	0	-5.477740765	0	0	1.0
[LeftHand]
53	127.1009369	0	0	0.0004042918736	-21.62495804	0.3206661046	1.0
54	127.1009369	0	0	0.0005126985488	-21.61219406	0.33701846	1.0
55	127.1009369	0	0	0.0003911143867	-21.55568314	0.3987627625	1.0
56	127.1009369	0	0	0.0001886220416	-21.4936161	0.4676066041	1.0
[LeftHandEnd]
53	72.05677795	0	0	0	0	0	1.0
54	72.05677795	0	0	0	0	0	1.0
55	72.05677795	0	0	0	0	0	1.0
56	72.05677795	0	0	0	0	0	1.0
[L_FingersEnd]
53	72.05677795	0	0	0	0	0	1.0
54	72.05677795	0	0	0	0	0	1.0
55	72.05677795	0	0	0	0	0	1.0
56	72.05677795	0	0	0	0	0	1.0
[LeftHandThumb1]
53	28.82271004	-48.03784943	-19.2151413	0	0	0	1.0
54	28.82271004	-48.03784943	-19.2151413	0	0	0	1.0
55	28.82271004	-48.03784943	-19.2151413	0	0	0	1.0
56	28.82271004	-48.03784943	-19.2151413	0	0	0	1.0
[LeftHandThumb2]
53	72.05677795	0	0	0	0	0	1.0
54	72.05677795	0	0	0	0	0	1.0
55	72.05677795	0	0	0	0	0	1.0
56	72.05677795	0	0	0	0	0	1.0
[RightUpLeg]
53	-91.21989441	0	-26.64850616	9.457520485	4.389209747	-0.785050869	1.0
54	-91.21989441	0	-26.64850616	9.433202744	4.385112762	-0.7970280051	1.0
55	-91.21989441	0	-26.64850616	9.404726028	4.385765553	-0.8127356768	1.0
56	-91.21989441	0	-26.64850616	9.378975868	4.385014534	-0.828543067	1.0
[RightLeg]
53	402.8824463	0	0	0	0	14.81071377	1.0
54	402.8824463	0	0	0	0	14.79061317	1.0
55	402.8824463	0	0	0	0	14.76883602	1.0
56	402.8824463	0	0	0	0	14.7486763	1.0
[RightFoot]
53	435.9781189	0	0	4.499561787	-1.807419419	-15.00008774	1.0
54	435.9781189	0	0	4.504676819	-1.792377949	-14.99107552	1.0
55	435.9781189	0	0	4.510918617	-1.781699419	-14.98149395	1.0
56	435.9781189	0	0	4.517365456	-1.771319628	-14.9720459	1.0
[RightToeBase]
53	183.1846619	0	0	0	0	0.7394735813	1.0
54	183.1846619	0	0	0	0	0.7175489664	1.0
55	183.1846619	0	0	0	0	0.686783433	1.0
56	183.1846619	0	0	0	0	0.6583123207	1.0
[RightToeBaseEnd]
53	73.79586792	0	0	0	0	0	1.0
54	73.79586792	0	0	0	0	0	1.0
55	73.79586792	0	0	0	0	0	1.0
56	73.79586792	0	0	0	0	0	1.0
[LeftUpLeg]
53	91.21989441	0	-26.64850616	0.6537662745	-5.021289825	0.2450805604	1.0
54	91.21989441	0	-26.64850616	0.6139988899	-5.027810574	0.2024208605	1.0
55	91.21989441	0	-26.64850616	0.5679575801	-5.031182289	0.1544810832	1.0
56	91.21989441	0	-26.64850616	0.5257568359	-5.035564423	0.1093579903	1.0
[LeftLeg]
53	402.8824463	0	0	0	0	11.46778107	1.0
54	402.8824463	0	0	0	0	11.50373745	1.0
55	402.8824463	0	0	0	0	11.54240036	1.0
56	402.8824463	0	0	0	0	11.57701302	1.0
[LeftFoot]
53	435.9781189	0	0	-7.890491486	-0.1785932779	-12.72669315	1.0
54	435.9781189	0	0	-7.871665001	-0.1393761784	-12.73799801	1.0
55	435.9781189	0	0	-7.849709511	-0.09747741371	-12.75064087	1.0
56	435.9781189	0	0	-7.83216238	-0.05822185427	-12.76202393	1.0
[LeftToeBase]
53	183.1846619	0	0	0	0	0.9018619657	1.0
54	183.1846619	0	0	0	0	0.9066636562	1.0
55	183.1846619	0	0	0	0	0.9141257405	1.0
56	183.1846619	0	0	0	0	0.9213584661	1.0
[LeftToeBaseEnd]
53	73.79586792	0	0	0	0	0	1.0
54	73.79586792	0	0	0	0	0	1.0
55	73.79586792	0	0	0	0	0	1.0
56	73.79586792	0	0	0	0	0	1.0
[EndOfFile]
